<?xml version="1.0" encoding="UTF-8"?>
<svg width="135px" height="40px" viewBox="0 0 135 40" version="1.1" xmlns="http://www.w3.org/2000/svg" xmlns:xlink="http://www.w3.org/1999/xlink">
    <!-- Generator: Sketch 48.2 (47327) - http://www.bohemiancoding.com/sketch -->
    <title>Slice 1</title>
    <desc>Created with Sketch.</desc>
    <defs></defs>
    <g id="Page-1" stroke="none" stroke-width="1" fill="none" fill-rule="evenodd">
        <g id="baidu">
            <path d="M130.197,40 L4.729,40 C2.122,40 0,37.872 0,35.267 L0,4.726 C0,2.12 2.122,0 4.729,0 L130.197,0 C132.803,0 135,2.12 135,4.726 L135,35.267 C135,37.872 132.803,40 130.197,40 Z" id="Shape" fill="#A6A6A6" fill-rule="nonzero"></path>
            <path d="M134.032,35.268 C134.032,37.384 132.318,39.098 130.198,39.098 L4.729,39.098 C2.61,39.098 0.89,37.384 0.89,35.268 L0.89,4.725 C0.89,2.61 2.61,0.89 4.729,0.89 L130.197,0.89 C132.318,0.89 134.031,2.61 134.031,4.725 L134.032,35.268 Z" id="Shape" fill="#000000" fill-rule="nonzero"></path>
            <g transform="translate(12.000000, 9.000000)" fill-rule="nonzero" id="Shape">
                <path d="M11.7985705,22.006546 L10.205615,22.006546 C4.5981021,22.006546 0.0101370212,17.4185809 0.0101370212,11.811068 L0.0101370212,10.2181125 C0.0101370212,4.61059965 4.5981021,0.0226345663 10.205615,0.0226345663 L11.7985705,0.0226345663 C17.4060834,0.0226345663 21.9940484,4.61059965 21.9940484,10.2181125 L21.9940484,11.811068 C21.9940233,17.4185809 17.4060583,22.006546 11.7985705,22.006546 Z" fill="#1D2FE3"></path>
                <path d="M9.25231267,10.3581371 C8.79720762,11.002863 8.02785084,12.1460623 6.76549496,13.0129291 C5.90945149,13.6034883 5.95279483,15.0500659 6.31038992,15.7814785 C6.667985,16.512891 7.85450259,17.0601069 9.10061099,16.8000469 C10.3413203,16.5345627 10.9264553,16.2691036 12.470568,16.7242086 C14.0146807,17.1738895 15.25539,16.8542386 15.7646616,15.7814785 C16.2739584,14.7087183 15.6887982,13.4842816 14.7298457,12.8612274 C13.7708681,12.2381732 13.1315665,11.165413 12.5247597,10.2443797 C11.9287763,9.3232961 10.330497,8.85194357 9.25231267,10.3581371 Z" fill="#FFFFFF"></path>
                <path d="M5.33516484,9.20951354 C5.33516484,10.2298685 5.98524819,11.0570296 6.78716663,11.0570296 C7.58908508,11.0570296 8.23916842,10.2298685 8.23916842,9.20951354 C8.23916842,8.18915862 7.58908508,7.36199752 6.78716663,7.36199752 C5.98524819,7.36199752 5.33516484,8.18915862 5.33516484,9.20951354 Z" fill="#FFFFFF"></path>
                <path d="M8.13081008,6.34342908 C8.13081008,7.36378402 8.78089343,8.19094512 9.58281189,8.19094512 C10.3847303,8.19094512 11.0348137,7.36378402 11.0348137,6.34342908 C11.0348137,5.32307415 10.3847303,4.49591304 9.58281189,4.49591304 C8.78089343,4.49591304 8.13081008,5.32307415 8.13081008,6.34342908 Z" fill="#FFFFFF"></path>
                <path d="M11.7283071,6.62516079 C11.7283071,7.2852147 12.0050571,7.89512966 12.454308,8.22515661 C12.9035589,8.55518357 13.4570589,8.55518357 13.9063098,8.22515661 C14.3555607,7.89512966 14.6323107,7.2852147 14.6323107,6.62516079 C14.6323107,5.60480586 13.9822273,4.77764475 13.1803089,4.77764475 C12.3783904,4.77764475 11.7283071,5.60480586 11.7283071,6.62516079 Z" fill="#FFFFFF"></path>
                <path d="M13.7985165,10.1847386 C13.7985165,11.2050936 14.4485998,12.0322547 15.2505183,12.0322547 C16.0524367,12.0322547 16.7025201,11.2050936 16.7025201,10.1847386 C16.7025201,9.16438371 16.0524367,8.3372226 15.2505183,8.3372226 C14.4485998,8.3372226 13.7985165,9.16438371 13.7985165,10.1847386 Z" fill="#FFFFFF"></path>
            </g>
            <text id="安卓百度网盘下载" font-family="PingFangSC-Regular, PingFang SC" font-size="11" font-weight="normal" fill="#FFFFFF">
                <tspan x="39" y="24">安卓百度网盘下载</tspan>
            </text>
        </g>
    </g>
</svg>