<?xml version="1.0" encoding="UTF-8"?>
<svg width="135px" height="40px" viewBox="0 0 135 40" version="1.1" xmlns="http://www.w3.org/2000/svg" xmlns:xlink="http://www.w3.org/1999/xlink">
    <!-- Generator: Sketch 3.8.3 (29802) - http://www.bohemiancoding.com/sketch -->
    <title>google-play-badge</title>
    <desc>Created with Sketch.</desc>
    <defs>
        <linearGradient x1="90.7661538%" y1="4.8392%" x2="-38.3292308%" y2="71.9688%" id="linearGradient-1">
            <stop stop-color="#00A0FF" offset="0%"></stop>
            <stop stop-color="#00A1FF" offset="0.657445%"></stop>
            <stop stop-color="#00BEFF" offset="26.01%"></stop>
            <stop stop-color="#00D2FF" offset="51.22%"></stop>
            <stop stop-color="#00DFFF" offset="76.04%"></stop>
            <stop stop-color="#00E3FF" offset="100%"></stop>
        </linearGradient>
        <linearGradient x1="107.727094%" y1="49.4294118%" x2="-130.66601%" y2="49.4294118%" id="linearGradient-2">
            <stop stop-color="#FFE000" offset="0%"></stop>
            <stop stop-color="#FFBD00" offset="40.87%"></stop>
            <stop stop-color="#FFA500" offset="77.54%"></stop>
            <stop stop-color="#FF9C00" offset="100%"></stop>
        </linearGradient>
        <linearGradient x1="86.3886228%" y1="17.8158218%" x2="-49.8886228%" y2="194.393566%" id="linearGradient-3">
            <stop stop-color="#FF3A44" offset="0%"></stop>
            <stop stop-color="#C31162" offset="100%"></stop>
        </linearGradient>
        <linearGradient x1="-18.5796407%" y1="-54.525874%" x2="42.2742515%" y2="24.6908814%" id="linearGradient-4">
            <stop stop-color="#32A071" offset="0%"></stop>
            <stop stop-color="#2DA771" offset="6.85%"></stop>
            <stop stop-color="#15CF74" offset="47.62%"></stop>
            <stop stop-color="#06E775" offset="80.09%"></stop>
            <stop stop-color="#00F076" offset="100%"></stop>
        </linearGradient>
    </defs>
    <g id="Page-1" stroke="none" stroke-width="1" fill="none" fill-rule="evenodd">
        <g id="google-play-badge" transform="translate(-10.000000, -10.000000)">
            <g id="artwork">
                <g id="Group">
                    <rect id="Rectangle-path" fill-opacity="0" fill="#FFFFFF" x="0" y="0" width="155" height="60"></rect>
                    <path d="M140,50 L15,50 C12.2,50 10,47.8 10,45 L10,15 C10,12.2 12.2,10 15,10 L140,10 C142.8,10 145,12.2 145,15 L145,45 C145,47.8 142.8,50 140,50 L140,50 Z" id="Shape" fill="#000000"></path>
                    <path d="M140,10.8 C142.3,10.8 144.2,12.7 144.2,15 L144.2,45 C144.2,47.3 142.3,49.2 140,49.2 L15,49.2 C12.7,49.2 10.8,47.3 10.8,45 L10.8,15 C10.8,12.7 12.7,10.8 15,10.8 L140,10.8 L140,10.8 Z M140,10 L15,10 C12.2,10 10,12.3 10,15 L10,45 C10,47.8 12.2,50 15,50 L140,50 C142.8,50 145,47.8 145,45 L145,15 C145,12.3 142.8,10 140,10 L140,10 L140,10 Z" id="Shape" fill="#A6A6A6"></path>
                    <g transform="translate(20.000000, 17.000000)" id="Shape">
                        <path d="M0.4,0.5 C0.1,0.8 0,1.3 0,1.9 L0,24 C0,24.6 0.2,25.1 0.5,25.4 L0.6,25.5 L13,13.1 L13,13 L13,12.9 L0.4,0.5 L0.4,0.5 L0.4,0.5 Z" fill="url(#linearGradient-1)"></path>
                        <path d="M17,17.3 L12.9,13.2 L12.9,13 L12.9,12.9 L17,8.8 L17.1,8.9 L22,11.7 C23.4,12.5 23.4,13.8 22,14.6 L17,17.3 L17,17.3 L17,17.3 Z" fill="url(#linearGradient-2)"></path>
                        <path d="M17.1,17.2 L12.9,13 L0.4,25.5 C0.9,26 1.6,26 2.5,25.6 L17.1,17.2" fill="url(#linearGradient-3)"></path>
                        <path d="M17.1,8.8 L2.5,0.5 C1.6,6.99440506e-15 0.9,0.1 0.4,0.6 L12.9,13 L17.1,8.8 L17.1,8.8 Z" fill="url(#linearGradient-4)"></path>
                        <g transform="translate(0.000000, 17.000000)" fill="#000000">
                            <path d="M17,0.1 L2.5,8.3 C1.7,8.8 1,8.7 0.5,8.3 L0.5,8.3 L0.4,8.4 L0.4,8.4 L0.5,8.5 L0.5,8.5 C1,8.9 1.7,9 2.5,8.5 L17,0.1 L17,0.1 L17,0.1 Z" opacity="0.2"></path>
                            <path d="M0.4,8.3 C0.1,8 0,7.5 0,6.9 L0,7 C0,7.6 0.2,8.1 0.5,8.4 L0.5,8.3 L0.4,8.3 L0.4,8.3 Z" opacity="0.12"></path>
                        </g>
                        <path d="M22,14.3 L17,17.1 L17.1,17.2 L22,14.4 C22.7,14 23,13.5 23,13 L23,13 C23,13.5 22.6,13.9 22,14.3 L22,14.3 Z" fill="#000000" opacity="0.12"></path>
                        <path d="M2.5,0.6 L22,11.7 C22.6,12.1 23,12.5 23,13 L23,13 C23,12.5 22.7,12 22,11.6 L2.5,0.5 C1.1,-0.3 0,0.3 0,1.9 L0,2 C0,0.5 1.1,-0.2 2.5,0.6 L2.5,0.6 Z" fill="#FFFFFF" opacity="0.25"></path>
                    </g>
                </g>
            </g>
            <text id="直接安装" font-family="PingFangSC-Regular, PingFang SC" font-size="8" font-weight="normal" fill="#FFFFFF">
                <tspan x="68" y="21">直接安装</tspan>
            </text>
            <text id="安卓版本" font-family="PingFangSC-Semibold, PingFang SC" font-size="14" font-weight="500" fill="#FFFFFF">
                <tspan x="56" y="39">安卓版本</tspan>
            </text>
        </g>
    </g>
</svg>